<svg xmlns="http://www.w3.org/2000/svg" viewBox="0 0 1043.45 1485.58"><defs><style>.cls-1{fill:#FADD8B;}</style></defs><title>Bacterial_Factory_Icon_</title><g id="Layer_2" data-name="Layer 2"><g id="unicorn_outline_Image" data-name="unicorn outline Image"><ellipse class="cls-1" cx="280.29" cy="536.19" rx="25.56" ry="26.92"/><path class="cls-1" d="M1008.18,1485.58c3.52-35.94,2.93-71.74-3.69-107.37a296.41,296.41,0,0,1-4.53-76.51c1.84-24.48,4.23-48.93,3.43-73.53a123.7,123.7,0,0,0-.85-12.77c-3.16-23.35,1.11-44.51,17.18-62.69,20.52-9.15,23.55-27,23.72-41.79a110,110,0,0,0-4.7-32.61C1000.85,950.19,960,823,940.43,690.74a565.35,565.35,0,0,1-4.87-113.92c1.49-27,4.28-53.82,2-81-2.39-28.25-7.86-55.6-18.68-81.85-9-21.76-20.54-42.25-30.85-63.35-14.85-30.43-23.22-62.47-26.06-96.26-1.74-20.64-1.4-41.24-1.73-61.87a202.94,202.94,0,0,0-3.28-33.95c-7.75-41.82-32.82-71.18-68.62-91.81-20.83-12-43.45-15-67-8-9.92,2.94-19.58,6.51-29.3,10-16,5.7-32.26,8-49.28,5.91-11.81-1.48-22.91-5.11-34-9-26.66-9.33-52.91-9.31-79.1,2a209.38,209.38,0,0,1-35.45,11.7c-19.51,4.54-38.34,3.88-55-8.79-14.1-10.75-29.9-17.84-46.58-23.23-14.34-4.64-27.58-11.46-40.3-19.41-5.43-3.4-10.82-6.88-16.41-10A138.51,138.51,0,0,0,262.12.1C236.53,1,228.88,0,202.91,30.6c-20.36,15.78-12.24,8.83-17.81,13.23-13,10.24-12.23,23.83-18.7,44.88-5.64,16.78-1.82,1.62-7.13,31.81a92.34,92.34,0,0,0-.87,22.23c-.31,10.87,6.34,21.29,10.17,31.33,4.82,12.63,10.15,25.06,15.31,37.56,4.22,10.22,8.17,20.51,9.31,31.63,1.48,14.39-3.23,25.27-16.08,33.3-41.4,25.85-71.38,61.95-90.59,106.53-13.12,30.47-28.83,59.55-44,89C12.75,529.71-3.34,590.49.58,656c1.79,29.72,6.83,58.66,17,86.6C38,798.42,73.21,840.35,129.8,862.64c23.17,9.13,45.78,19.67,68.6,29.65a83.06,83.06,0,0,0,35.32,6.93c1.78,0,3.56,0,5.34,0a52.37,52.37,0,0,1,6.4.23c6.51.94,8.63,4.16,6.55,10.43-1.93,5.81-5.44,10.85-9.34,15.47-7.92,9.38-13.49,20.11-17.9,31.4s-8.49,22.68-12.1,34.21c-17.88,57.15-30.41,115.62-42.8,174.12-6,28.2-12,56.45-14.78,85.16-3.85,40-5.47,80.1-3,120.41,2.23,37,3.48,77.7,10.56,114.08M285,625.53c-42.13,0-76.28-39.11-76.28-87.36s34.15-87.36,76.28-87.36,76.28,39.11,76.28,87.36S327.14,625.53,285,625.53Z"/></g></g></svg>
