<svg xmlns="http://www.w3.org/2000/svg" xmlns:xlink="http://www.w3.org/1999/xlink" viewBox="0 0 266.86 160.37"><defs><style>.cls-1{fill:none;}.cls-2{font-size:19px;}.cls-10,.cls-14,.cls-16,.cls-2{fill:#fff;}.cls-10,.cls-2{font-family:Campton-Bold, Campton;font-weight:700;}.cls-3{letter-spacing:-0.01em;}.cls-4{letter-spacing:0em;}.cls-5{letter-spacing:0em;}.cls-6{letter-spacing:-0.01em;}.cls-7{letter-spacing:0em;}.cls-8{letter-spacing:-0.03em;}.cls-9{letter-spacing:-0.06em;}.cls-10{font-size:26px;letter-spacing:-0.01em;}.cls-11{letter-spacing:-0.03em;}.cls-12{letter-spacing:-0.05em;}.cls-13{letter-spacing:0em;}.cls-14{fill-rule:evenodd;}.cls-15{clip-path:url(#clip-path);}</style><clipPath id="clip-path"><rect class="cls-1" x="68.33" y="49.33" width="132.4" height="73.5"/></clipPath></defs><title>Sold Out</title><g id="Layer_2" data-name="Layer 2"><g id="Layer_1-2" data-name="Layer 1"><text class="cls-2" transform="translate(65.95 39.6)"><tspan class="cls-3">S</tspan><tspan class="cls-4" x="12.65" y="0">e</tspan><tspan class="cls-5" x="23.48" y="0">ll-</tspan><tspan class="cls-6" x="44.38" y="0">O</tspan><tspan x="59.6" y="0">ut </tspan><tspan class="cls-6" x="84.93" y="0">S</tspan><tspan class="cls-7" x="97.64" y="0">h</tspan><tspan class="cls-8" x="109.06" y="0">o</tspan><tspan class="cls-9" x="119.76" y="0">w</tspan></text><text class="cls-10" transform="translate(102.69 153.25)">2<tspan class="cls-11" x="14.69" y="0">0</tspan><tspan class="cls-12" x="32.66" y="0">1</tspan><tspan class="cls-13" x="45.27" y="0">9</tspan></text><path class="cls-14" d="M94.09,70.78a2.13,2.13,0,0,1-.16.25l-.17-.09c.06-.68.12-1.38.2-2.06s.14-1.2.25-1.8a1.7,1.7,0,0,1,.32-.5c.14.15.37.29.42.47a4.08,4.08,0,0,1-.23,2.34,10.79,10.79,0,0,1-.63,1.39ZM85.63,85.52a2.73,2.73,0,0,1-1.35.87c-.78.3-1.58.55-2.38.8s-1.47.45-2.21.61a25.69,25.69,0,0,1-2.6.45,14.09,14.09,0,0,1-1.71,0c0-.64-.08-1.23-.09-1.83s0-1.06.07-1.6c0-.72.08-1.45.07-2.18,0-.37.14-.48.48-.47h3.6a7.69,7.69,0,0,1,1.44.09c.74.16,1.47.39,2.21.61a5.06,5.06,0,0,1,2.43,1.56.73.73,0,0,1,0,1.07ZM75.13,74.19A9.14,9.14,0,0,0,75,72.81c-.1-.38.1-.45.37-.5a2.06,2.06,0,0,1,.43,0v0a12.81,12.81,0,0,0,1.75.07,5.86,5.86,0,0,1,2.32.41,4.53,4.53,0,0,1,1.23.77c.25.19.21.91,0,1.24A8.53,8.53,0,0,1,77.39,78a7.32,7.32,0,0,1-1.14.4c-.07,0-.11.1-.18.12s-.45.19-.5.14a1.2,1.2,0,0,1-.26-.64c0-.84-.06-1.67-.09-2.51q0-.66-.09-1.32ZM106,69.82a18.1,18.1,0,0,0-.49-2.93,12.26,12.26,0,0,0-.92-2.11,1.24,1.24,0,0,0-1.41-.74,1.28,1.28,0,0,0-1,1c-.17.46-.35.92-.51,1.38a1.78,1.78,0,0,0-.19.66A9.86,9.86,0,0,1,101,70c-.1.39-.09.81-.66.86a3.22,3.22,0,0,1,.37.2,50.57,50.57,0,0,0-.82,11c-.49-.46-.88-1-1.32-1.41-1.1-1.12-2.23-2.21-3.33-3.34a1.3,1.3,0,0,1-.42-.74,3,3,0,0,1,.41-2,17,17,0,0,1,1.38-1.67,4.6,4.6,0,0,0,1.41-3,3.59,3.59,0,0,1,.17-1.08,2.1,2.1,0,0,0,0-1.7c-.19-.39-.38-.78-.58-1.16a2.39,2.39,0,0,0-.13-.28,6.25,6.25,0,0,0-1.55-1.81,3.75,3.75,0,0,0-2.4-.95,10.44,10.44,0,0,1-1.37,0,1.49,1.49,0,0,0-1.39.79,4.63,4.63,0,0,0-.58,1.76c-.17.92-.26,1.87-.39,2.8s-.23,1.62-.32,2.42-.17,1.57-.25,2.36c-.13,1.36-.25,2.73-.39,4.09a3.91,3.91,0,0,1-.15.83,1.91,1.91,0,0,0-.07,1.25,3.25,3.25,0,0,1,.2.74c0,.49,0,1,0,1.54l-1.21-.86A9.59,9.59,0,0,0,83.46,79a14.22,14.22,0,0,0-2.17-.17c-.74,0-1.49,0-2.23,0a4.15,4.15,0,0,1-.7-.15l0-.15a2.64,2.64,0,0,1,.4-.35c.25-.16.53-.28.8-.42l.49-.23c.8-.41,1.61-.79,2.38-1.26.48-.29.85-.75,1.32-1.07A4.39,4.39,0,0,0,84.9,73.8a1,1,0,0,0,.18-.38,2.82,2.82,0,0,0-.79-2.57,7.46,7.46,0,0,0-2.14-1.44,8.9,8.9,0,0,0-3.25-.78c-.89,0-.93,0-1.12-.8,0,0,0-.07-.08-.11a1.81,1.81,0,0,0,0,.33c.08.49,0,.53-.47.46a1,1,0,0,0-.24,0l-2,.16c-.39,0-.79.11-1.19.13s-.94.22-1.37-.22A1.87,1.87,0,0,0,70,68.24a2.35,2.35,0,0,0-1.35,2.06c0,.34.06.77-.32,1v.07c0,.06.09.12.09.18.06.92.1,1.84.17,2.76s.14,1.78.24,2.66c.14,1.29.29,2.58.47,3.86.14,1,.33,2.11.51,3.16.06.37.12.74.19,1.13l-.26,0-.18,0c0,.35,0,.35.5.24.09.35.18.69.25,1,.25,1.18.47,2.37.73,3.55.2.89.44,1.76.69,2.64a7.17,7.17,0,0,0,.9,2.25.5.5,0,0,0,.66.19,1.67,1.67,0,0,1,.31,0c.11,0,.25,0,.33,0a6.85,6.85,0,0,1,.9-.58.87.87,0,0,0,.53-.83c0-.26.06-.51.08-.76s.17-.52.56-.45c.13,0,.27.08.37,0,1.11-.35,2.24-.65,3.31-1.1,1.25-.51,2.44-1.17,3.65-1.76l.23-.1-.51-.23A4,4,0,0,0,83.6,89a.65.65,0,0,0,.24-.35s-.17-.16-.28-.22a1,1,0,0,0-.3,0c.11-.13.26-.12.31-.19a1.68,1.68,0,0,1,1.28-.59c.56-.09.92-.52,1.42-.72.26-.1.49-.33.76-.37a5.26,5.26,0,0,0,1.87-1,.56.56,0,0,1,.35-.14c.08,0,.16.17.2.28.2.62.36,1.26.57,1.88.37,1.1.8,1.45,1.7,1.43s1.42-.58,1.1-1.55a1.06,1.06,0,0,1,0-.5c.14-.77.31-1.54.44-2.31.08-.45.12-.9.19-1.46.18.16.29.24.38.34l2,2.19c.55.64,1.09,1.29,1.65,1.91a7.86,7.86,0,0,0,2.07,1.91,2.12,2.12,0,0,0,2.72-.31.43.43,0,0,1,.17-.06,1.64,1.64,0,0,0,.94-.5c.06-.08.2-.09.3-.13.37-.17.8-.27.91-.75a3.56,3.56,0,0,0,.09-.73c0-.77,0-1.55,0-2.32,0-.35.1-.69.14-1,.09-.62.17-1.25.24-1.88s.16-1.51.23-2.27c0-.12,0-.24,0-.35l.3-2.85c.08-.73.15-1.45.24-2.18s.19-1.35.22-2a15,15,0,0,0,0-2.32Z"/><g class="cls-15"><path class="cls-14" d="M200.73,111.33c-.28.32-.69.53-.75,1,0,.09-.14.17-.23.25-.45.39-.89.8-1.37,1.16a1.48,1.48,0,0,0-.49,1.54,12.85,12.85,0,0,0,1.17,2.56,4.7,4.7,0,0,1,.36,1.17l-.18.07a4.44,4.44,0,0,1-.42-.73c-.19-.53-.29-1.1-.51-1.61a3.24,3.24,0,0,0-1.29-1.65c-.29-.17-.42-.06-.47.2a5.56,5.56,0,0,0,0,.71,2.83,2.83,0,0,1,0,.29l-.12,0c-.06-.14-.12-.27-.19-.4s-.12-.22-.17-.22a.41.41,0,0,0-.27.17,2.71,2.71,0,0,0-.38,2.22,1.84,1.84,0,0,1-.16,1,1.76,1.76,0,0,0-.2.94,10.33,10.33,0,0,1-.08,1.57c0,.29,0,.59,0,.89a.94.94,0,0,1-.08.33c0-.42,0-.84,0-1.25a4.52,4.52,0,0,0-.06-.53s-.06-.1,0-.15c0-.39.12-.78.18-1.17a.61.61,0,0,0,0-.23,3.84,3.84,0,0,1,0-2,3.26,3.26,0,0,0-.31-2c-.12-.25-.25-.25-.38,0a1.75,1.75,0,0,1-.13.28,2.19,2.19,0,0,1-.21.23,1.27,1.27,0,0,1-.07-.37c0-.27.07-.55.12-.93l-.71.31a.57.57,0,0,1,0-.19c.08-.5-.18-.73-.67-.58-.19.06-.38.14-.57.22s-.38,0-.42-.28-.07-.4-.11-.6-.06-.15,0-.18c.29-.35,0-.48-.33-.71.21-.12.37-.21.53-.32s.24-.16.28-.27-.1-.2-.18-.28-.29-.26-.37-.33c.15-.66.28-1.23.43-1.84l-.54.2c.14-.37.16-.76.36-.9a1.91,1.91,0,0,1,1.2-.5,1.1,1.1,0,0,0,1.27-.76c.11-.32.3-.61.75-.36.08,0,.3,0,.41-.14a.52.52,0,0,1,.79.07,3.44,3.44,0,0,1,.27.27c.32.4.67.63,1.2.26.07.3.13.54.19.82.16,0,.31-.07.45-.12s.54-.29.66.18a.18.18,0,0,0,.16.08c.38-.11.46.15.59.43a4.41,4.41,0,0,0,.85,1.58,1.71,1.71,0,0,0,.33.17v.39Z"/><path class="cls-14" d="M107,49.33a1.13,1.13,0,0,0,1.3.28c.39-.1.74-.25,1.11,0,.1.07.28,0,.51.05l.27,2.72a1,1,0,0,0,.46.8,2.64,2.64,0,0,1,.58.54c-.53.07-1,.15-1.29.77l1,.38a4,4,0,0,0-.84.21.85.85,0,0,0-.35,1,8.83,8.83,0,0,0,.9,2.24,6.93,6.93,0,0,1,.61,1.45c-.23-.41-.44-.83-.69-1.23a10.66,10.66,0,0,0-1.79-2.28c-.07-.07-.08-.21-.14-.3a3.87,3.87,0,0,0-.43-.55.36.36,0,0,0-.31,0,1.42,1.42,0,0,0-.13.66,5.6,5.6,0,0,0,.3.87c0,.07,0,.22,0,.23a.39.39,0,0,1-.28,0,8.87,8.87,0,0,1-.86-.61c-.21-.18-.35-.08-.52,0l-.47.25a2.13,2.13,0,0,0-.37-.61c-.37-.29-.71-.15-1,.34-.06-.21-.14-.32-.11-.41.17-.55.16-.75-.37-.75s-.93-.57-1.44-.75a.81.81,0,0,1-.34-.21.64.64,0,0,1,0-.93,1.36,1.36,0,0,0,.29-.49c.14-.49.24-1,.36-1.54.49.15.55-.19.63-.5a.89.89,0,0,1,.81-.69,2.51,2.51,0,0,0,.5-.18c.22-.07.44-.13.65-.21s.18,0,.2-.1c.19-.49.47-.35.76-.12l.13.05c.08-.16.15-.32.22-.48Z"/></g><path class="cls-14" d="M100.06,100.42c-.33.14-.59.25-.85.38a.34.34,0,0,0,.09.26c.36.22.62,0,.76-.64Zm19.37,4.71a2.34,2.34,0,0,0,.44-.27c.5-.44,1-.87,1.48-1.35.74-.74,1.47-1.5,2.18-2.29a1.53,1.53,0,0,0,.53-1.31,2.17,2.17,0,0,0-2.81-1.68c-.92.28-1.8.67-2.7,1-.29.12-.38.27-.2.6a9.93,9.93,0,0,1,1,3.67c.06.52.08,1,.12,1.61Zm-12.75,6.94c.09-.21.19-.41.29-.62h0c-.08.37-.15.73-.25,1.09a7.85,7.85,0,0,0-.07,2.32,2.76,2.76,0,0,1-.33,1.38,1.88,1.88,0,0,1-.27.3c-.17.19-.42.36-.49.59a13.82,13.82,0,0,1-1.1,2.56c-.23.43-.43.4-.73,0a8.47,8.47,0,0,1-1.6-3.32c-.21-.95-.39-1.91-.53-2.87-.18-1.11-.3-2.23-.46-3.43-.3.06-.6.1-.89.18s-.59-.08-.54-.38a7.31,7.31,0,0,1,.42-1.4,6.7,6.7,0,0,0,.61-3.44c-.06-.52,0-1.05,0-1.57a1,1,0,0,0-.51-.84,6.21,6.21,0,0,1-.84-.92,5.42,5.42,0,0,0-.82-.7c-.08-.06-.29,0-.42.11-.29.14-.39.07-.48-.24-.41-1.45.54-2.23,1.53-2.84,1.61-1,3.32-1.86,5-2.76.59-.32,1.19-.64,1.81-.91.78-.35,1.57-.67,2.36-1,.6-.23,1.22-.43,1.84-.63s1.38-.45,2.09-.62,1.25-.19,1.86-.34a11.91,11.91,0,0,1,3.47-.3,1.43,1.43,0,0,1,.81.18c.13.1.14.5.05.69a3.05,3.05,0,0,1-2.24,1.75,8.16,8.16,0,0,0-1.7.65c-.61.3-1.17.72-1.78,1-.81.38-1.65.68-2.48,1l-1.19.46c-.69.27-1.39.52-2.08.8-1,.38-1.9.77-2.84,1.17a3.16,3.16,0,0,0-.4.25c.39.83.78,1.6,1.09,2.39a4.38,4.38,0,0,1,.21,1.21c.06.52.14.57.57.35s1.1-.61,1.67-.86a7.49,7.49,0,0,1,1.22-.38,16.06,16.06,0,0,1,1.65-.44,2.74,2.74,0,0,1,1.7-.07c.08,0,.27-.07.35-.16a.7.7,0,0,1,.63-.28c1,0,1-.08,1.06-1.09a2.42,2.42,0,0,0,0-.25,2.36,2.36,0,0,1-.67.14.68.68,0,0,1-.46-.23c-.09-.11-.15-.38-.08-.46a15.72,15.72,0,0,1,1.46-1.59,11.63,11.63,0,0,1,1.42-1c.56-.37,1.09-.78,1.67-1.11a23.79,23.79,0,0,1,2.35-1.22,8.09,8.09,0,0,1,3.74-.84,6.06,6.06,0,0,1,3.41,1.21,5.78,5.78,0,0,1,1.62,2,3.39,3.39,0,0,1,.18,2.55,3.35,3.35,0,0,1-1.09,1.82,4.7,4.7,0,0,0-.72.87,5.71,5.71,0,0,1-1.3,1c-.75.55-1.44,1.19-2.16,1.78-.46.38-.92.75-1.39,1.1-.3.22-.12.36,0,.53l.48.53-.08.1.45,0,0,.07a3.47,3.47,0,0,0,.5.38c.49.23,1,.42,1.49.64a.89.89,0,0,1,.31.27c.44.66,1.23.81,1.79,1.29.25.21.65.26.74.66a.25.25,0,0,0,.13.12c.3.08.42.32.59.55a3.91,3.91,0,0,0,.8.71c.11.1.26.16.36.27s.37.29.53.07l.71.34.09-.08c0-.15-.07-.29-.09-.43-.14-.92-.31-1.83-.4-2.75-.14-1.52-.23-3-.31-4.56a30.66,30.66,0,0,1-.07-3.32c.08-1.37.29-2.74.43-4.11,0-.4.09-.8.1-1.2s.26-.84.79-.78,1.32.21,2,.33a2.21,2.21,0,0,1,.59.14,1.38,1.38,0,0,1,.58.48,11.31,11.31,0,0,1,.73,1.58,31,31,0,0,1,1,2.94,15.4,15.4,0,0,1,.37,2.37c.34,3.06.09,6.13.15,9.2a9,9,0,0,1-.17,1.45c-.09.64-.2,1.27-.29,1.91s-.11,1-.18,1.5a2.15,2.15,0,0,1-.18.44.87.87,0,0,0-1.08-.22,2.68,2.68,0,0,1-1.1.17.94.94,0,0,0-.63.3,2.45,2.45,0,0,1-.71.34,4.45,4.45,0,0,0-.54.25.47.47,0,0,0-.09.72,1.92,1.92,0,0,0,.18.22,4.38,4.38,0,0,1-1.08,0,6,6,0,0,1-.95-.47,22.06,22.06,0,0,1-3.9-2.49c-1.19-.89-2.3-1.88-3.47-2.78-.73-.56-1.5-1.06-2.27-1.56a3.38,3.38,0,0,0-.74-.25,6.82,6.82,0,0,0-.13.87c0,.81,0,1.62-.09,2.42s-.12,1.84-.15,2.76a10.4,10.4,0,0,0,.5,3.53c-.46,0-.87,0-1.29,0l-1.57.06a1,1,0,0,1-.93-.49,16.43,16.43,0,0,1-1.34-2.47,28.31,28.31,0,0,1-.84-3.29,14,14,0,0,1-.28-1.55c-.09-.74-.13-1.47-.17-2.21a23.61,23.61,0,0,1,.15-4.2,3.52,3.52,0,0,0-.07-.79c-.24,0-.48.09-.71.16l-2.75.88a5.58,5.58,0,0,0-.66.3c-.83.38-1.66.77-2.5,1.13-.41.17-.36.5-.33.82.07.68.16,1.36.24,2a.93.93,0,0,0,0,.13l.11,0Z"/><path class="cls-14" d="M118.47,76.63c-.43-.06-.86-.13-1.3-.16-.78-.07-1.57-.11-2.36-.17-.53,0-1.06-.09-1.58-.17-.1,0-.26-.2-.25-.29a1,1,0,0,1,.2-.54,2.5,2.5,0,0,1,.69-.65c.62-.37,1-1.06,1.62-1.37a1.46,1.46,0,0,1,.72,0l2.5.3v-.68l.31.54a1,1,0,0,0,1,0c.3-.31.6-.61.91-.9a.71.71,0,0,1,.93.12,9.75,9.75,0,0,0,.64.8.8.8,0,0,0,.45.22c.93,0,1.86,0,2.79,0,.23,0,.33,0,.38-.32.24-1.45.53-2.89.83-4.32a1.81,1.81,0,0,1,.44-.8,10.94,10.94,0,0,1,1.17-1.09c.76-.63,1.32-.49,1.69.41a9.55,9.55,0,0,1,.47,1.26,12,12,0,0,1,.48,4c0,.65.17.81.82.78.93,0,1.87-.06,2.81-.08.51,0,.52,0,.5-.54-.06-1.93-.14-3.85-.14-5.77a10,10,0,0,1,.34-1.94c.09-.44.28-.86.33-1.3.1-.83.77-1.14,1.29-1.59.21-.18.42-.34.64-.5a2,2,0,0,1,.45-.26c.2-.07.4-.07.48.18.42,1.2.85,2.4,1.24,3.61a12.44,12.44,0,0,1,.29,1.54c.17,0,.38,0,.46-.15a4.82,4.82,0,0,1,1.73-1,6.63,6.63,0,0,1,1-.24l2.76-.74c.31-.08.63-.13.94-.2l.52-.13c.34-.07.67-.13,1-.18.63-.1,1.27-.18,1.91-.27a.36.36,0,0,1,.11,0l2-.16c1-.1,2.08-.23,3.12-.3a11,11,0,0,1,1.4.06l.85.06a.74.74,0,0,1,0,.14l-1,.6c-.05,0-.16,0-.18,0-.34.54-1,.59-1.46.86a7.15,7.15,0,0,1-.7.21.39.39,0,0,0-.2.2c-.14.45-.3.52-.76.59-.86.14-1.71.35-2.57.53-.26.06-.51.17-.77.21s-.35.18-.32.43c.06.62.11,1.24.18,1.85a4.41,4.41,0,0,1,0,1.45,18.5,18.5,0,0,0-.19,2c-.1,1.27-.23,2.53-.3,3.8,0,.76,0,1.53.06,2.3s.08,1.62.17,2.42.21,1.68.37,2.51a1.49,1.49,0,0,1-.2,1.43,1.34,1.34,0,0,0-.14.32c-.42-.35-.43-.3-.84.08a7.66,7.66,0,0,1-1.27.77c-.48.29-.93.08-1.42,0a2.46,2.46,0,0,1-1.89-1.88,15.05,15.05,0,0,1-.45-2.22c-.11-.65-.19-1.31-.25-2s-.11-1.52-.14-2.28,0-1.28,0-1.92.13-1.59.2-2.38.11-1.36.21-2,.26-1.41.4-2.11c0-.12,0-.23.05-.35,0-.27-.12-.32-.37-.26a14.28,14.28,0,0,1-1.93.37,6,6,0,0,1-1.57-.15c-.27,0-.35,0-.34.24.06,1,.12,2,.19,3,0,.28,0,.55.07.89.42,0,.85,0,1.27,0a4.49,4.49,0,0,1,.81.17.34.34,0,0,1,0,.25,6.25,6.25,0,0,0-.9,1.11c-.14.29-.23.56-.55.68l-.52.17c.05,1.12.11,2.29.16,3.46,0,.28,0,.57,0,.85.1,1.32.24,2.64.31,4,0,.49.38,1,0,1.4s-.74.41-.91.68c-.28.45-.77.45-1.13.71s-.86,0-1.27-.13-.94-.45-1.43-.6a.93.93,0,0,1-.6-.73,29.88,29.88,0,0,1-.5-3c-.12-1.15-.18-2.3-.23-3.45,0-.83,0-1.66,0-2.49s-.06-.84-.81-.79-1.57.11-2.36.19a5.68,5.68,0,0,0-.82.17.55.55,0,0,0-.37.58c-.07,1.1-.14,2.2-.16,3.3-.05,2-.06,3.93-.09,5.89,0,.6-.13.72-.7.88a1.77,1.77,0,0,0-1.05.72c-.12.19-.43.26-.66.38a3.31,3.31,0,0,1-.33.15.52.52,0,0,1-.74-.24,7.88,7.88,0,0,1-1-3.17c0-.5-.14-1-.19-1.5a11,11,0,0,1-.11-1.41c0-1.47,0-2.94-.06-4.41a.45.45,0,0,0-.3-.31c-.51,0-1,0-1.56,0a4.5,4.5,0,0,0,0,.46c0,.87.13,1.74.16,2.61,0,1.72,0,3.44.07,5.17a5.12,5.12,0,0,1-.09,1c0,.12-.2.23-.33.29a2.85,2.85,0,0,1-.59.16l-.65.13c-.11,0-.27,0-.34,0-.59.54-1.19,0-1.79,0-.31,0-.61,0-1.06,0a7.11,7.11,0,0,1-.49-.87,8.36,8.36,0,0,1-.32-1.1c-.65.24-1.22.49-1.82.67a17.31,17.31,0,0,1-1.89.45c-.64.1-1.29.09-1.93.17a4,4,0,0,1-1.93-.43,10.47,10.47,0,0,1-2.18-1.32,1.16,1.16,0,0,1-.36-.4,8.83,8.83,0,0,1-1.16-1.94c-.28-.85-.65-1.67-.88-2.53a7,7,0,0,1-.21-2.8c.11-.73.09-1.48.19-2.21a8.79,8.79,0,0,1,.39-1.59c.21-.64.45-1.28.72-1.9a7.23,7.23,0,0,1,.66-1.18,24.62,24.62,0,0,1,1.52-2.25,11.21,11.21,0,0,1,3.45-2.86,21.18,21.18,0,0,1,2-1,11.64,11.64,0,0,1,1.9-.6,4,4,0,0,1,1.52-.15,4.4,4.4,0,0,1,2.27.59,3.29,3.29,0,0,1,1,1.22.91.91,0,0,1-.2,1,1,1,0,0,1-.9.41c-.21,0-.36-.3-.56-.4a2,2,0,0,0-.77-.24c-.64,0-1.28.12-1.91.19a3.76,3.76,0,0,0-1.81.61c-.23.16-.49.27-.72.42a7.64,7.64,0,0,0-2.39,2.75c-.27.47-.57.91-.85,1.37a5.86,5.86,0,0,0-.43.87c-.31.82-.61,1.65-.88,2.48a12.2,12.2,0,0,0-.55,3.66,6.65,6.65,0,0,0,.74,3.21,5.71,5.71,0,0,0,2.4,2.44,9.8,9.8,0,0,0,2.54.92,7.83,7.83,0,0,0,1.52.21,7.59,7.59,0,0,0,1.48-.23c.06,0,.14-.19.14-.29,0-1.43-.06-2.87-.08-4.31,0-1,0-1.94,0-3Z"/><path class="cls-14" d="M183.43,97.74c-.31.34-.56.59-.78.86a1.84,1.84,0,0,0-.16.41,1.12,1.12,0,0,1-.24.43.48.48,0,0,0-.18.56,2.32,2.32,0,0,1-.11.86c-.09.33-.23.64-.32,1a1.34,1.34,0,0,1-1.13.77l-3.2.31c-.49.06-.64.22-.62.71,0,1.1.09,2.21.17,3.31a.62.62,0,0,0,.43.4c.8.07,1.6.08,2.4.11a7.69,7.69,0,0,0,.83,0c1,0,2-.09,3-.16a5.08,5.08,0,0,0,.86-.19c.06,0,.13-.06.18,0,.71.27,1.42-.12,2.13,0a5.68,5.68,0,0,0,1,0c.39,0,.51.24.38.62a1.61,1.61,0,0,0,0,.56l-.77.27c0,.37.27.58.62.77,0,.09-.06.2-.13.25a12.79,12.79,0,0,1-1.56,1.21,3.24,3.24,0,0,1-2.4.44,6.41,6.41,0,0,0-1.24-.08c-.82,0-1.65,0-2.47,0a10.35,10.35,0,0,1-2.09-.18c-.69-.18-1.4-.21-2.09-.33a6,6,0,0,1-1.76-.53,5.49,5.49,0,0,1-1.39-.86,1.46,1.46,0,0,1-.42-1.31,3.06,3.06,0,0,0-.22-1,11,11,0,0,1-.51-2.85,7.79,7.79,0,0,0-.09-1.28c0-.12-.19-.25-.31-.29-.34-.11-.69-.18-1.1-.28-.35.18-.41.49-.38,1,.08,1.11,0,2.23,0,3.34s0,2.23,0,3.34,0,2.22.08,3.32.2,2.22.29,3.33c.07.71.13,1.42.16,2.13s-.42.89-1.08.74a5.32,5.32,0,0,0-1.86-.43,5,5,0,0,1-1-.11,5.51,5.51,0,0,1-1.08-.06.86.86,0,0,1-.55-.47,17.4,17.4,0,0,1-.45-1.72c-.22-1-.45-1.89-.64-2.85-.11-.51-.12-1-.19-1.58s-.16-1.2-.23-1.8c0-.21-.1-.26-.3-.2-.38.13-.75.25-1.13.36a4.21,4.21,0,0,1-2.26.17,4.72,4.72,0,0,1-1.86-1,1.76,1.76,0,0,1-.4-.5,7.71,7.71,0,0,0-1.29-1.56,2.87,2.87,0,0,1-.45-1.12,9.13,9.13,0,0,1-.31-1.25c-.13-.67-.24-1.34-.31-2s-.13-1.65-.16-2.48a10.83,10.83,0,0,1,.08-1.27c0-.4.1-.8.13-1.2a17.06,17.06,0,0,1,.6-2.73,10.9,10.9,0,0,1,2.05-4,7.41,7.41,0,0,1,3.18-2.3,11.37,11.37,0,0,1,5-.7,4.48,4.48,0,0,1,2.94,1.41,1.51,1.51,0,0,1,.34,1.79,1.05,1.05,0,0,1-1,.59c-.5,0-1,.07-1.51.07s-.87-.08-1.31-.1a3.21,3.21,0,0,0-2.08.92,7.44,7.44,0,0,0-2,2.83,16.48,16.48,0,0,0-1.23,3.73,15.15,15.15,0,0,0-.23,4.25,8.47,8.47,0,0,0,.63,2.53,5.43,5.43,0,0,0,2.79,2.85,1.15,1.15,0,0,0,.25-1,4.68,4.68,0,0,1,0-1,25.09,25.09,0,0,1,.34-4.06c0-.25.19-.57.09-.73s-.48-.07-.7-.17-.31-.33-.27-.43a3.2,3.2,0,0,1,.5-.72.82.82,0,0,1,.27-.22c.66-.31.89-1,1.21-1.55a.5.5,0,0,1,.64-.32,5,5,0,0,0,1,0c1,0,2,0,3,0,.58,0,1.16-.09,1.74-.16.29,0,.37-.29.38-.55,0-.7,0-1.4.09-2.09a11.41,11.41,0,0,1,.35-1.74c.09-.29.06-.47-.18-.61-.49-.29-.5-.85-.71-1.28a.37.37,0,0,1,.14-.34c.86-.56,1.73-1.13,2.63-1.63a9.86,9.86,0,0,1,3.07-1.08,13.56,13.56,0,0,1,3-.41c.86,0,1.71,0,2.57,0a12.94,12.94,0,0,1,1.6.25c.43.07.86.13,1.29.21.25,0,.5.12.87.21l-3,1.7c.17.13.29.2.4.28l.31.24a.91.91,0,0,1-.23.21c-.41.16-.84.28-1.25.45a3,3,0,0,0-.82.42,4.06,4.06,0,0,1-1.49.58c-1,.3-2.06.53-3.09.81-.13,0-.32.24-.31.36a19.71,19.71,0,0,0,.11,2.17c0,.5.19.55.72.49.88-.1,1.75-.18,2.63-.23a15.77,15.77,0,0,1,1.82,0,5.74,5.74,0,0,1,1.05.26Z"/><path class="cls-14" d="M143,116.47l-.21-.59h-.08c-.06.19-.12.37-.2.65-.08-.27-.14-.45-.21-.68-.1.07-.18.1-.21.16-.31.52-.86.57-1.36.68-.13,0-.39-.16-.47-.31a4.45,4.45,0,0,1-.37-1c-.19-.74-.37-1.48-.51-2.23-.23-1.2-.47-2.4-.6-3.62s-.19-2.52-.25-3.79c-.07-1.56-.11-3.13-.16-4.69,0-1,0-2-.09-3a6.12,6.12,0,0,0-.35-1.25,2.77,2.77,0,0,1-.1-.26,2,2,0,0,1-.12-.78c.09-.37.47-.1.7-.19a5.2,5.2,0,0,0,.62-.32,1.63,1.63,0,0,1,1.66-.13,4,4,0,0,1,.63.28,2.76,2.76,0,0,1,.79.81,10.69,10.69,0,0,0,1.67,2c.52.59,1,1.19,1.53,1.81a34.42,34.42,0,0,1,2.9,4.71c.55,1,1.06,2,1.59,3a1.85,1.85,0,0,0,.25.32l.11,0c0-.51-.05-1-.11-1.52-.1-.85-.22-1.7-.34-2.55-.14-1.08-.29-2.17-.42-3.25,0-.32-.07-.65-.09-1-.05-.92-.12-1.84-.14-2.76s0-1.73,0-2.59a9.42,9.42,0,0,0-.26-2.59c0-.15,0-.35,0-.53a15.46,15.46,0,0,0-.13-1.66.54.54,0,0,1,.29-.6,2,2,0,0,1,1-.35,2.93,2.93,0,0,0,1.07-.25,2.51,2.51,0,0,1,1.94.12c.19.1.3.52.29.79,0,1.06-.1,2.11-.13,3.16s0,2,0,3c0,1.42.07,2.84.16,4.26.06,1,.21,2,.3,3,.11,1.17.23,2.34.31,3.51.08,1,.08,2,.17,3s.25,2,.38,3c.08.63.15,1.26.26,1.89s.29,1.19.4,1.8a15.12,15.12,0,0,1,.13,1.51c0,.26-.1.34-.36.22a6.4,6.4,0,0,0-2.16-.44,2.9,2.9,0,0,0-.41-.06c-.23,0-.45.09-.68.09a2.08,2.08,0,0,1-.53-.14c-.23-.07-.53-.08-.66-.24s.09-.5,0-.64a16.14,16.14,0,0,0-1.36-1.5,18.8,18.8,0,0,1-3.42-4c-.6-1-1.26-2-1.89-2.92a.9.9,0,0,0-.2-.23c-.23-.2-.35,0-.38.15-.05.42-.07.84-.09,1.26-.06,1.8-.12,3.61-.15,5.42a15.67,15.67,0,0,0,.14,1.67.91.91,0,0,1,0,.23l-.09,0Z"/><path class="cls-14" d="M181.9,77.45c.09-.39.21-.78.27-1.18.11-.84.23-1.68.29-2.53s.08-1.79.08-2.69,0-1.9-.07-2.85c0-1.17-.05-2.34-.08-3.5a.87.87,0,0,0,0-.23c-.42-1.15.21-1.88,1-2.56.35-.29.66-.63,1-.92s.55-.42.88-.66a16.38,16.38,0,0,1,1.15,1.2,5.25,5.25,0,0,1,.94,2.18,22.5,22.5,0,0,1,.48,4.48c0,1,.12,2,.14,3,0,.58,0,1.16-.07,1.74s0,1.08-.08,1.61c-.14,1.42-.31,2.83-.47,4.24s-.29,2.83-.47,4.24c-.09.69-.26,1.38-.41,2.06a2.15,2.15,0,0,1-.26.63c0,.07-.18.11-.28.13a3,3,0,0,1-.48.06c.1.21.16.36.25.54-.4,0-.52.24-.64.56a1.91,1.91,0,0,1-1.14,1c-.07,0-.19,0-.28-.07a4,4,0,0,1-.71-.43c-.3-.26-.36,0-.42.18s0,.31,0,.46a.29.29,0,0,1-.16.21c-.06,0-.21,0-.22-.11-.07-.29-.22-.22-.44-.16a.59.59,0,0,1-.7-.34c-.37-.79-.69-1.6-1-2.42s-.72-1.9-1.09-2.85-.76-1.83-1.14-2.75L176.19,76l-1.41-3.47a4.33,4.33,0,0,0-.37-.57c0,.2-.07.29-.08.38-.1,1.13-.15,2.27-.32,3.39s-.47,2-.7,3a20,20,0,0,0-.86,4.19,3.16,3.16,0,0,1,.05.68,1.13,1.13,0,0,1-.83.89,9.19,9.19,0,0,1-1.58.12,1,1,0,0,1-.23,0c-.61,0-.71-.08-.8-.69a13.2,13.2,0,0,1-.22-2.5,20.79,20.79,0,0,1,.47-2.93c.18-1,.42-1.91.6-2.87.23-1.29.42-2.59.61-3.89.1-.71.15-1.44.26-2.15.14-.86.28-1.73.48-2.57a1.68,1.68,0,0,1,1.58-1c.57,0,.95.1,1.21.68.15.32.6.51.91.76a5.71,5.71,0,0,1,.74.63c.55.64,1.07,1.31,1.58,2s1.13,1.49,1.66,2.26c.38.56.72,1.16,1.05,1.75.61,1.11,1.21,2.23,1.81,3.34l.1,0Z"/><path class="cls-14" d="M167.79,77c0-.29,0-.67,0-1,0-.1-.1-.19-.16-.28-.07.1-.19.2-.18.3,0,.31.07.61.12,1l-.4-.18v.65l.63-.43Zm-.67,3.1c.2-.59.36-1.07.51-1.55a.29.29,0,0,0-.08-.2c-.2-.24-.37-.24-.52.06s-.54.62-.38,1.06a3,3,0,0,0,.47.63ZM156,78.71a14.05,14.05,0,0,0,.42,1.65,10.19,10.19,0,0,0,.85,1.64A4,4,0,0,0,159,83.55c.83.37,1.25.62,2-.26.28-.35.61-.66.89-1a5,5,0,0,0,.71-1,21.15,21.15,0,0,0,.89-1.93,5.94,5.94,0,0,0-.12-4.66,4.43,4.43,0,0,0-1.59-2c-.66-.46-1.33-.92-2-1.35a.42.42,0,0,0-.39.11c-.49.72-1,1.43-1.41,2.19a19.25,19.25,0,0,0-1.24,2.49c-.33.84-.52,1.73-.75,2.52Zm7-9.85c0-.63-.4-1.19.06-1.77a11.66,11.66,0,0,1,.3,1.4,1,1,0,0,0,.75,1,2.31,2.31,0,0,1,1.18.85c.08.14.32.16.43.29.4.46.8.93,1.18,1.42a9,9,0,0,1,.5.76,4.57,4.57,0,0,1,.69,1.93c.07.48.26,1,.32,1.44s0,1,0,1.43a5.42,5.42,0,0,1,0,.57q-.07.59-.21,1.17c0,.09-.13.16-.28.33v-1h-.12a2.1,2.1,0,0,0-.22,1.55l.41-.28.09.08c-.26.48-.51,1-.78,1.47l-.68-.16c.08.16.14.26.21.39-.09,0-.18,0-.21.09a1.18,1.18,0,0,0-.12.28h.26a4.07,4.07,0,0,0,.4-.14c-.21.37-.36.63-.74.64-.07,0-.2.14-.19.21,0,.73-.25,1.06-.94,1.08,0,.31-.1.6-.16.89,0,0,0,.14-.07.13-.37-.07-.66.34-1.07.12a4.48,4.48,0,0,0-1-.24c-.25,0-.51-.09-.75-.16a3.29,3.29,0,0,0-2.1.09,23.4,23.4,0,0,1-2.47,1,5,5,0,0,1-2-.11,5.26,5.26,0,0,1-2.82-2,11.5,11.5,0,0,1-1.26-1.7,7.05,7.05,0,0,1-1-2.92,7.85,7.85,0,0,1,.33-3,16.79,16.79,0,0,1,1-2.27c.37-.76.78-1.5,1.2-2.23a9.32,9.32,0,0,1,3.44-3.71,5.76,5.76,0,0,1,1.26-.38,5.49,5.49,0,0,0,.7-.17,5.67,5.67,0,0,1,2.27-.3c.3,0,.73.31.71.6,0,.71.32,1,1,1.13a4.12,4.12,0,0,1,.56.19Z"/><path class="cls-14" d="M127.76,88.43c1.41,1.44,2,3.36,3,5.06-.64-.36-3.09-4-3-5.06Z"/><path class="cls-14" d="M111.85,55.29V55a1.66,1.66,0,0,0,.28.26,4.32,4.32,0,0,0,.93.48.94.94,0,0,1,.76.73,4.29,4.29,0,0,1-.81-.26c-.4-.26-.76-.57-1.16-.88Z"/><path class="cls-14" d="M115.84,67.81l.57.92-.11.06-.52-1,.06,0Z"/><path class="cls-16" d="M0,63.09a18.61,18.61,0,0,1,7.59,3.59,35.59,35.59,0,0,1,9.91,11A15.45,15.45,0,0,1,19,81.27c.6,2.15,1.14,4.33,1.87,6.45.08.23.27.51.05.72s-.5.06-.74,0a22.27,22.27,0,0,1-6-3.23A33.74,33.74,0,0,1,1.28,67.14C.92,66,.43,64.83,0,63.67Z"/><path class="cls-16" d="M230,121.06c-1,0-1.93.12-2.26-.49s.31-1.32.7-1.9a15.16,15.16,0,0,1,3.66-3.62,47.06,47.06,0,0,1,18.78-8.61,20.2,20.2,0,0,1,4-.32c1.68,0,3.37-.1,5.06-.13,1,0,1.16.21.73,1.14a10,10,0,0,1-3.3,3.79,49.44,49.44,0,0,1-24,9.76Z"/><path class="cls-16" d="M223.87,132.71c-3.62-.21-7.1-.53-10.33-2.1-.58-.27-1.42-.5-1.46-1.15s.82-.82,1.33-1.11a39.54,39.54,0,0,1,13.48-5.13c5.34-.85,10.71-1.23,16,.26a12.2,12.2,0,0,1,4.41,2c.4.32.72.69,0,1-3.94,1.42-7.67,3.37-11.71,4.52A58.41,58.41,0,0,1,223.87,132.71Z"/><path class="cls-16" d="M37.23,121.05a45.78,45.78,0,0,1-28-10.7,12,12,0,0,1-2.88-3.52C6,106.31,6,106,6.77,106a44,44,0,0,1,28.92,9.72,11.62,11.62,0,0,1,3.17,3.52c.74,1.35.59,1.63-.94,1.81C37.69,121,37.46,121,37.23,121.05Z"/><path class="cls-16" d="M48.73,133.45c6.56,0,11.36.89,15.62,3.87a16.42,16.42,0,0,0,4.77,2.14,47.33,47.33,0,0,1,11,4.53c.29.17.8.27.72.68s-.55.25-.85.37a4.71,4.71,0,0,1-4-.32c-3-1.46-6.16-2.76-9.24-4.15a2.3,2.3,0,0,0-1.67-.12,48.67,48.67,0,0,1-14.65,1.61c-5.43-.3-10.79-1.08-15.79-3.44-.85-.4-.92-.56-.18-1.15A15.06,15.06,0,0,1,39.86,135,38.63,38.63,0,0,1,48.73,133.45Z"/><path class="cls-16" d="M208.72,22A30,30,0,0,1,229,29.75a44.33,44.33,0,0,1,7.15,8.08c.57.8.52,1-.47,1a18.32,18.32,0,0,1-5.22-.48,45.24,45.24,0,0,1-21.78-11.49A12.71,12.71,0,0,1,206,23.23c-.44-.92-.35-1.08.63-1.13C207.44,22.05,208.25,22,208.72,22Z"/><path class="cls-16" d="M31.82,122.46c7.07.31,13.92,1.51,20.2,5,.65.36,1.24.83,1.88,1.21s.62.86,0,1.31A10.33,10.33,0,0,1,51,131.4a27,27,0,0,1-12.41.89,61.61,61.61,0,0,1-15.73-4.64c-1-.41-2-.76-3-1.15s-.93-.56-.2-1.14a13,13,0,0,1,5.64-2.26A29.5,29.5,0,0,1,31.82,122.46Z"/><path class="cls-16" d="M58.71,22.1h1.76c.71,0,.84.32.55.93a14.37,14.37,0,0,1-2.62,3.62,36.86,36.86,0,0,1-8.79,6.56,43.8,43.8,0,0,1-15,5.45,22.74,22.74,0,0,1-3.4.12c-.93,0-1-.13-.49-.93A30.37,30.37,0,0,1,50.93,23.21,34.77,34.77,0,0,1,58.71,22.1Z"/><path class="cls-16" d="M185.91,144.66a7.7,7.7,0,0,1,2.1-1.19c6.66-3.1,13.38-6.05,20.25-8.62,5.25-2,10.62-1.78,16-.57a24.68,24.68,0,0,1,7.2,2.61c.55.32,1.4.62,1.37,1.25s-1,.58-1.5.83c-5.41,2.47-11.18,3.09-17,3.08a57.64,57.64,0,0,1-11.15-1.59,6.19,6.19,0,0,0-4.15.43c-2.87,1.38-5.76,2.7-8.66,4A4.7,4.7,0,0,1,185.91,144.66Z"/><path class="cls-16" d="M258.28,86.9a13.22,13.22,0,0,1-1.45,4.75,37,37,0,0,1-18.09,17.26,14.72,14.72,0,0,1-3.26,1c-.68.13-1,0-.71-.78,2.91-6.87,6.41-13.35,12.15-18.33a20.53,20.53,0,0,1,10.39-5C258,85.64,258.42,85.71,258.28,86.9Z"/><path class="cls-16" d="M8.63,86.27c0-.77.54-.62,1-.54a19.39,19.39,0,0,1,6.8,2.58,32.13,32.13,0,0,1,9.17,8.9,59.46,59.46,0,0,1,6.45,11.66c.12.28.38.62.15.9s-.61.11-.92,0a24.58,24.58,0,0,1-10.38-5.15A35.5,35.5,0,0,1,9.7,90.55a15.3,15.3,0,0,1-.9-3C8.72,87.16,8.69,86.74,8.63,86.27Z"/><path class="cls-16" d="M66.48,1.63a20.09,20.09,0,0,1-2.7,7.59A30.57,30.57,0,0,1,44.07,23.65c-.51.12-1.19.49-1.55.05s.18-1,.38-1.44c3.44-7.93,8.6-14.39,16.2-18.73A18.92,18.92,0,0,1,65.67,1.2C66.41,1.09,66.5,1.18,66.48,1.63Z"/><path class="cls-16" d="M244.8,33.75A29.9,29.9,0,0,1,243,42.56c-.23.7-.6.51-1,.18a13,13,0,0,1-3.32-4.28,39.67,39.67,0,0,1-4.71-15.35c-.18-2.09-.68-4.16-.39-6.29a31.41,31.41,0,0,1,1.35-5.57c.21-.61.5-.7,1-.27a11.25,11.25,0,0,1,1.76,1.95,40.9,40.9,0,0,1,6.6,15.68C244.55,30.42,244.64,32.28,244.8,33.75Z"/><path class="cls-16" d="M201,1.18a18.23,18.23,0,0,1,6,2.06,39.23,39.23,0,0,1,17.15,19.54c.14.31.43.67.16,1s-.61,0-.92,0a29.38,29.38,0,0,1-14.41-7.3A25.6,25.6,0,0,1,200.7,3.05c-.09-.41-.17-.82-.25-1.24S200.5,1.1,201,1.18Z"/><path class="cls-16" d="M22.15,34.28A36.88,36.88,0,0,1,29.6,12.8c.52-.7,1.16-1.69,2-1.55s.82,1.34,1.12,2.11c1.1,2.82.74,5.72.51,8.64a40,40,0,0,1-4.66,15.85,16.68,16.68,0,0,1-3.33,4.66c-.84.77-1,.74-1.36-.31A27.85,27.85,0,0,1,22.15,34.28Z"/><path class="cls-16" d="M198.62,135.68a23.88,23.88,0,0,1,3.09-9.43,34.31,34.31,0,0,1,11.64-12.73,18.3,18.3,0,0,1,6.35-2.64c.51-.09,1-.11.69.65-2.09,5.1-4,10.28-7.58,14.65a38.26,38.26,0,0,1-8,7.06c-1.69,1.2-3.42,2.36-5.14,3.53-.26.18-.51.54-.83.4s-.16-.64-.21-1A4,4,0,0,1,198.62,135.68Z"/><path class="cls-16" d="M68.32,136c0,.22,0,.45,0,.68,0,.58-.16.72-.66.37a103.22,103.22,0,0,1-10.74-7.89c-3.58-3.18-5.9-7.2-7.81-11.5-.86-1.93-1.65-3.88-2.47-5.83-.11-.26-.33-.58-.15-.82s.6-.16.91-.09a21.1,21.1,0,0,1,8.92,4.6A34.52,34.52,0,0,1,67.41,131.4a18.55,18.55,0,0,1,.65,2.54A8.19,8.19,0,0,1,68.32,136Z"/><path class="cls-16" d="M235.56,92.58a46.06,46.06,0,0,1-3.74,18.85,19.77,19.77,0,0,1-4.44,6.58,10.61,10.61,0,0,1-1.68,1.32c-1.64,1-1.68,1-1.95-.94a30,30,0,0,1,.62-12.26,37,37,0,0,1,10-17.3c.24-.24.48-.7.84-.54s.25.63.3,1a2.55,2.55,0,0,1,0,.39Z"/><path class="cls-16" d="M31.39,92.61c0-1.17,0-2.33,0-3.5,0-.3,0-.73.31-.85s.5.26.7.45a36.15,36.15,0,0,1,9.12,14.21,29.54,29.54,0,0,1,2,11.62c-.07,1.59-.28,3.17-.43,4.75-.06.66-.38.82-1,.52A12.11,12.11,0,0,1,38,116.3a31.44,31.44,0,0,1-5.4-12.5A42.15,42.15,0,0,1,31.39,92.61Z"/><path class="cls-16" d="M247.58,69.91c.14-6.32,1.26-12.39,4.66-17.86a16.28,16.28,0,0,1,7.19-6.5c1.07-.48,1.27-.38,1.28.76a39.51,39.51,0,0,1-6.92,23.12,13.72,13.72,0,0,1-4.71,4.44c-1.06.58-1.23.45-1.33-.75A26.45,26.45,0,0,1,247.58,69.91Z"/><path class="cls-16" d="M19.32,70a29.43,29.43,0,0,1-.16,3.52c0,.72-.35.81-.95.53a12.2,12.2,0,0,1-4.36-3.67C10,65.42,8,59.72,6.78,53.65a31,31,0,0,1-.58-7.26c0-1.28.18-1.36,1.37-.83a16.56,16.56,0,0,1,7.51,7.13,32.26,32.26,0,0,1,4.09,14A24.23,24.23,0,0,1,19.32,70Z"/><path class="cls-16" d="M11.72,36.79c.62-4,.46-8.15,1.65-12.07.32-1.06.37-1.08,1.18-.26a23.37,23.37,0,0,1,4.87,7.8,33,33,0,0,1,2.63,13.08,39,39,0,0,1-1.35,9.22c-.17.65-.47.8-1,.4a6.8,6.8,0,0,1-1.53-1.35A31.42,31.42,0,0,1,11.72,36.79Z"/><path class="cls-16" d="M245,45.32c.08-6.48,1.38-12.62,5-18.1a17.44,17.44,0,0,1,2.53-3c.44-.42.72-.4,1,.19a8.16,8.16,0,0,1,.6,2.84c.3,2.77.66,5.54.87,8.31.31,4.24-1,8.14-2.67,11.95a23.7,23.7,0,0,1-3.57,6A8.3,8.3,0,0,1,247.23,55c-.57.39-.88.34-1.06-.42A33.5,33.5,0,0,1,245,45.32Z"/><path class="cls-16" d="M246.44,88.54c-.46.06-.54-.15-.45-.46s.3-.92.44-1.39c.41-1.4.8-2.81,1.22-4.21,2.64-8.77,8.61-14.59,16.61-18.58a10.68,10.68,0,0,1,1.93-.65c.52-.15.8-.07.62.61a40,40,0,0,1-15,22.12,14.93,14.93,0,0,1-4.76,2.4Z"/><path class="cls-16" d="M246,63.77c.16.69-.3.76-1.07.53a16.7,16.7,0,0,1-7.26-4.9,39.45,39.45,0,0,1-9.24-15.62,21.06,21.06,0,0,1-.67-2.93c-.22-1.43.25-1.81,1.62-1.41a11.66,11.66,0,0,1,3.45,1.78c6.1,4.38,10.49,10,12.41,17.37A37.6,37.6,0,0,1,246,63.77Z"/><path class="cls-16" d="M245,80.13a27.3,27.3,0,0,1-1.37,9.67,7.31,7.31,0,0,1-2.25,3.47c-.76.59-1,.53-1.32-.36a5.93,5.93,0,0,0-.26-.63c-3.4-5.83-3.64-12.32-3.84-18.77A14.3,14.3,0,0,1,238.3,65c1.22-1.8,1.31-1.77,2.59,0a20,20,0,0,1,3.86,11.16C244.82,77.58,245,79,245,80.13Z"/><path class="cls-16" d="M21,63.36c.26-6,2.75-11.08,6.36-15.71a31.75,31.75,0,0,1,7.23-6.89,9.08,9.08,0,0,1,3-1.41c1-.23,1.62.24,1.64,1.31a6.28,6.28,0,0,1-.43,2.19,50.12,50.12,0,0,1-7.64,14.59,21.94,21.94,0,0,1-7.56,6.18,10.11,10.11,0,0,1-1.44.59C21.11,64.56,21,64.44,21,63.36Z"/><path class="cls-16" d="M22,80.38c.07-4.7.45-9.35,2.91-13.53.56-1,1.19-1.86,1.77-2.8.35-.59.67-.56,1.12-.09A12.42,12.42,0,0,1,30.65,70c.75,3.3.2,6.58,0,9.88-.32,4.66-2,8.91-3.76,13.12-.29.66-.61.64-1.11.3a5.59,5.59,0,0,1-1.83-2.23A22.53,22.53,0,0,1,22,82.52C22,81.81,22,81.1,22,80.38Z"/><path class="cls-16" d="M232.63,25.17c0,1,0,1.72,0,2.43,0,1-.27,1.19-1.26.85a7,7,0,0,1-3-2.11,27.28,27.28,0,0,1-6.92-16.06c-.1-1.42-.22-2.84-.42-4.25a13.65,13.65,0,0,1,.59-5.28c.2-.8.55-.9,1.22-.45A17,17,0,0,1,228,6.2a34.73,34.73,0,0,1,4.33,13.93A36.76,36.76,0,0,1,232.63,25.17Z"/><path class="cls-16" d="M45.83,5.37c0,7.08-1.6,13.65-6,19.32a10.63,10.63,0,0,1-4.26,3.6c-1.07.44-1.3.31-1.23-.82.25-4.49,0-9,1.32-13.42A31.41,31.41,0,0,1,41.72,2.42,13.93,13.93,0,0,1,44.19.23c.61-.43.91-.24,1.08.44A16.62,16.62,0,0,1,45.83,5.37Z"/></g></g></svg>